<svg height="511pt" viewBox="-10 1 511 511.99975" width="511pt" xmlns="http://www.w3.org/2000/svg"><path d="m490.5 267c0 135.308594-109.691406 245-245 245s-245-109.691406-245-245 109.691406-245 245-245 245 109.691406 245 245zm0 0" fill="#95d6fc"/><path d="m357.761719 49.183594-31.609375.007812c-7.695313.007813-13.933594 6.433594-13.578125 14.246094.332031 7.332031 6.644531 12.972656 13.980469 12.96875l21.566406-.015625c7.847656-.003906 14.039062 6.59375 13.585937 14.410156-.421875 7.25-6.695312 12.789063-13.960937 12.792969l-54.027344.035156c-7.621094.003906-13.890625 6.34375-13.582031 14.148438.285156 7.363281 6.613281 13.058594 13.984375 13.050781l81.714844-.050781c7.71875-.007813 13.949218 6.429687 13.59375 14.238281-.335938 7.320313-6.632813 12.957031-13.960938 12.964844l-28.363281.015625c-7.445313.007812-13.597657 6.058594-13.59375 13.613281.003906 7.507813 6.097656 13.59375 13.609375 13.589844 76.820312-.101563 112.476562-.042969 129.351562-.0625-20.902344-58.96875-63.738281-107.558594-118.710937-135.953125zm0 0" fill="#c3e9fc"/><path d="m479.542969 288.105469c-3.546875 0-6.421875 2.875-6.421875 6.421875v18.390625h-33.527344v-18.390625c0-3.546875-2.875-6.421875-6.421875-6.421875h-20.683594c-3.546875 0-6.421875 2.875-6.421875 6.421875v18.390625h-33.527344v-18.390625c0-3.546875-2.875-6.421875-6.421874-6.421875h-20.683594c-3.546875 0-6.421875 2.875-6.421875 6.421875v18.390625h-35.15625v24.808593h176.261719c4.792968-15.917968 8.007812-32.519531 9.46875-49.621093zm0 0" fill="#ebeaec"/><path d="m329.445312 324.691406c0-5.207031 3.058594-9.6875 7.472657-11.773437h-33.0625v24.808593h38.628906c-7.203125 0-13.039063-5.835937-13.039063-13.035156zm0 0" fill="#dad9dd"/><path d="m151.988281 294.527344c0-3.546875-2.875-6.421875-6.421875-6.421875h-20.683594c-3.546874 0-6.421874 2.875-6.421874 6.421875v18.390625h-33.527344v-18.390625c0-3.546875-2.875-6.421875-6.421875-6.421875h-20.683594c-3.546875 0-6.421875 2.875-6.421875 6.421875v18.390625h-33.53125v-18.390625c0-3.546875-2.875-6.421875-6.421875-6.421875h-10.039063c1.460938 17.105469 4.675782 33.703125 9.46875 49.625h176.261719v-24.8125h-35.15625zm0 0" fill="#ebeaec"/><path d="m187.144531 504.988281v-167.261719h-176.261719c24.839844 82.511719 92 146.671876 176.261719 167.261719zm0 0" fill="#dad9dd"/><path d="m20.855469 364.886719h166.289062v-27.160157h-176.261719c2.796876 9.300782 6.136719 18.363282 9.972657 27.160157zm0 0" fill="#ccccce"/><path d="m303.855469 504.988281c84.261719-20.589843 151.421875-84.75 176.261719-167.261719h-176.261719zm0 0" fill="#dad9dd"/><path d="m303.855469 504.988281c12.664062-3.09375 24.945312-7.160156 36.753906-12.136719v-155.125h-36.753906zm0 0" fill="#ccccce"/><path d="m480.117188 337.726562h-176.261719v27.160157h166.289062c3.835938-8.796875 7.175781-17.859375 9.972657-27.160157zm0 0" fill="#ccccce"/><path d="m303.855469 337.726562h36.753906v27.160157h-36.753906zm0 0" fill="#bfbfbf"/><path d="m148.085938 337.726562h46.21875v27.160157h-46.21875zm0 0" fill="#bfbfbf"/><path d="m148.085938 491.851562c12.511718 5.425782 25.566406 9.839844 39.058593 13.136719v-140.101562h-39.058593zm0 0" fill="#ccccce"/><path d="m252.5 4.886719c-2.390625-6.515625-11.609375-6.515625-14 0l-46.519531 126.855469h107.039062zm0 0" fill="#4f2649"/><path d="m279.851562 79.476562c-5.621093 13.039063-18.503906 22.660157-34.351562 22.660157s-28.730469-9.621094-34.351562-22.660157l-19.167969 52.265626h107.039062zm0 0" fill="#421f3f"/><path d="m161.175781 243.425781 22.800781 38.890625h122.042969l22.796875-38.890625c-20.378906 0-147.210937 0-167.640625 0zm0 0" fill="#dad9dd"/><path d="m161.175781 243.425781 22.800781 38.890625h50.117188l-22.800781-38.890625c-23.511719 0-43.097657 0-50.117188 0zm0 0" fill="#ccccce"/><path d="m184.980469 504.460938c19.359375 4.917968 39.632812 7.539062 60.519531 7.539062s41.160156-2.621094 60.519531-7.539062v-222.144532h-121.039062zm0 0" fill="#ccccce"/><path d="m184.980469 504.460938c15.820312 4.019531 32.253906 6.492187 49.132812 7.265624v-229.410156h-49.132812zm0 0" fill="#bfbfbf"/><path d="m228.234375 219.117188v-18.390626c0-3.546874 2.875-6.421874 6.421875-6.421874h20.683594c3.546875 0 6.421875 2.875 6.421875 6.421874v18.390626h38.554687v-63.191407h-110.640625v63.191407zm0 0" fill="#ccccce"/><path d="m233.609375 155.925781h-43.933594v63.191407h38.554688v-18.386719c0-3.191407 2.332031-5.832031 5.378906-6.332031zm0 0" fill="#bfbfbf"/><path d="m306.855469 157.9375h-122.710938c-7.5 0-13.582031-6.078125-13.582031-13.578125s6.082031-13.578125 13.582031-13.578125h122.710938c7.5 0 13.578125 6.078125 13.578125 13.578125s-6.078125 13.578125-13.578125 13.578125zm0 0" fill="#ebeaec"/><path d="m221.101562 144.359375c0-7.5 6.078126-13.578125 13.578126-13.578125h-50.535157c-7.5 0-13.582031 6.078125-13.582031 13.578125s6.082031 13.578125 13.582031 13.578125h50.535157c-7.5 0-13.578126-6.078125-13.578126-13.578125zm0 0" fill="#ccccce"/><path d="m272.402344 337.730469c-7.472656.136719-13.324219 6.550781-13.324219 14.027343v21.03125c0 1.875 1.523437 3.398438 3.398437 3.398438h20.363282c1.875 0 3.394531-1.523438 3.394531-3.398438v-21.480468c.003906-7.585938-6.214844-13.71875-13.832031-13.578125zm0 0" fill="#4f2649"/><path d="m272.402344 337.730469c-2.371094.042969-4.574219.722656-6.484375 1.863281 4.027343 2.355469 6.738281 6.710938 6.738281 11.714844v21.480468c0 1.875-1.519531 3.398438-3.394531 3.398438h13.578125c1.875 0 3.398437-1.523438 3.398437-3.398438v-21.480468c0-7.585938-6.21875-13.71875-13.835937-13.578125zm0 0" fill="#421f3f"/><g fill="#ebeaec"><path d="m220.835938 365.070312h-35.855469c-4.480469 0-8.113281-3.632812-8.113281-8.113281s3.632812-8.113281 8.113281-8.113281h35.855469c4.480468 0 8.113281 3.632812 8.113281 8.113281s-3.632813 8.113281-8.113281 8.113281zm0 0"/><path d="m257.378906 323.964844h-23.757812c-4.480469 0-8.113282-3.632813-8.113282-8.113282 0-4.480468 3.632813-8.113281 8.113282-8.113281h23.757812c4.480469 0 8.113282 3.632813 8.113282 8.113281 0 4.480469-3.632813 8.113282-8.113282 8.113282zm0 0"/><path d="m272.65625 487.839844h-27.15625c-4.480469 0-8.113281-3.628906-8.113281-8.109375 0-4.484375 3.632812-8.113281 8.113281-8.113281h27.15625c4.480469 0 8.113281 3.628906 8.113281 8.113281 0 4.480469-3.632812 8.109375-8.113281 8.109375zm0 0"/><path d="m322.394531 193.804688h-20.683593c-3.546876 0-6.421876 2.875-6.421876 6.421874v18.386719h-33.527343v-18.386719c0-3.546874-2.875-6.421874-6.421875-6.421874h-20.683594c-3.546875 0-6.421875 2.875-6.421875 6.421874v18.386719h-33.53125v-18.386719c0-3.546874-2.875-6.421874-6.421875-6.421874h-20.683594c-3.546875 0-6.421875 2.875-6.421875 6.421874v43.199219h167.640625v-43.199219c0-3.546874-2.875-6.421874-6.421875-6.421874zm0 0"/></g><path d="m211.261719 218.613281h-16.558594v-18.386719c0-3.546874-2.875-6.421874-6.421875-6.421874h-20.683594c-3.546875 0-6.421875 2.875-6.421875 6.421874v43.195313h50.085938c-10.273438-5.066406-10.328125-19.710937 0-24.808594zm0 0" fill="#dad9dd"/><path d="m151.449219 312.917969c-6.921875 0-12.53125 5.609375-12.53125 12.53125 0 6.0625 4.308593 11.117187 10.027343 12.277343h38.199219v-24.808593zm0 0" fill="#dad9dd"/><path d="m246.945312 414.644531c-7.476562.136719-13.324218 6.550781-13.324218 14.027344v21.03125c0 1.875 1.519531 3.398437 3.394531 3.398437h20.363281c1.878906 0 3.398438-1.523437 3.398438-3.398437v-21.480469c0-7.582031-6.214844-13.714844-13.832032-13.578125zm0 0" fill="#4f2649"/><path d="m246.945312 414.644531c-2.371093.042969-4.578124.722657-6.488281 1.863281 4.027344 2.355469 6.742188 6.714844 6.742188 11.714844v21.480469c0 1.875-1.519531 3.398437-3.398438 3.398437h13.582031c1.875 0 3.394532-1.523437 3.394532-3.398437v-21.480469c0-7.582031-6.214844-13.714844-13.832032-13.578125zm0 0" fill="#421f3f"/><path d="m372.085938 391.765625c-7.472657.136719-13.324219 6.550781-13.324219 14.027344v21.03125c0 1.875 1.519531 3.398437 3.398437 3.398437h20.363282c1.875 0 3.394531-1.523437 3.394531-3.398437v-21.484375c0-7.582032-6.214844-13.714844-13.832031-13.574219zm0 0" fill="#4f2649"/><path d="m372.085938 391.765625c-2.367188.042969-4.574219.722656-6.484376 1.863281 4.027344 2.355469 6.742188 6.710938 6.742188 11.714844v21.480469c0 1.875-1.523438 3.398437-3.398438 3.398437h13.578126c1.875 0 3.398437-1.523437 3.398437-3.398437v-21.480469c-.003906-7.585938-6.21875-13.71875-13.835937-13.578125zm0 0" fill="#421f3f"/><path d="m439.152344 391.765625c-7.476563.136719-13.324219 6.550781-13.324219 14.027344v21.03125c0 1.558593 1.054687 2.859375 2.484375 3.257812 8.539062-9.566406 16.339844-19.808593 23.3125-30.632812-2.230469-4.617188-6.980469-7.785157-12.472656-7.683594zm0 0" fill="#4f2649"/><path d="m451.632812 399.460938c-2.230468-4.621094-6.984374-7.796876-12.480468-7.695313-2.371094.042969-4.574219.722656-6.484375 1.863281 4.023437 2.355469 6.738281 6.710938 6.738281 11.714844v11.402344c4.3125-5.578125 8.398438-11.339844 12.226562-17.285156zm0 0" fill="#421f3f"/><path d="m119.023438 391.765625c-7.472657.136719-13.324219 6.550781-13.324219 14.027344v21.03125c0 1.875 1.523437 3.398437 3.398437 3.398437h20.363282c1.875 0 3.394531-1.523437 3.394531-3.398437v-21.484375c.003906-7.582032-6.214844-13.714844-13.832031-13.574219zm0 0" fill="#4f2649"/><path d="m119.023438 391.765625c-2.371094.042969-4.574219.722656-6.484376 1.863281 4.027344 2.355469 6.738282 6.710938 6.738282 11.714844v21.480469c0 1.875-1.519532 3.398437-3.394532 3.398437h13.578126c1.875 0 3.398437-1.523437 3.398437-3.398437v-21.480469c0-7.585938-6.21875-13.71875-13.835937-13.578125zm0 0" fill="#421f3f"/><path d="m51.960938 391.765625c-5.476563.101563-10.070313 3.574219-12.140626 8.363281 6.882813 10.613282 14.5625 20.660156 22.957032 30.054688 1.695312-.191406 3.015625-1.613282 3.015625-3.359375v-21.480469c0-7.585938-6.21875-13.71875-13.832031-13.578125zm0 0" fill="#4f2649"/><path d="m51.960938 391.765625c-2.371094.042969-4.574219.722656-6.484376 1.863281 4.023438 2.355469 6.738282 6.710938 6.738282 11.714844v12.1875c3.382812 4.335938 6.902344 8.554688 10.5625 12.652344 1.695312-.191406 3.015625-1.613282 3.015625-3.359375v-21.484375c0-7.582032-6.21875-13.714844-13.832031-13.574219zm0 0" fill="#421f3f"/><path d="m385.96875 212.40625h20.269531c7.511719 0 13.605469 6.089844 13.605469 13.601562 0 7.511719-6.09375 13.601563-13.605469 13.601563h-20.269531c-7.511719 0-13.601562-6.089844-13.601562-13.601563 0-7.511718 6.089843-13.601562 13.601562-13.601562zm0 0" fill="#c3e9fc"/><path d="m115.175781 130.761719h-73.324219c-16.390624 24.449219-28.492187 52.011719-35.234374 81.617187h77.105468c7.484375 0 13.601563-6.085937 13.601563-13.613281 0-7.507813-6.089844-13.601563-13.601563-13.601563h-14.804687c-7.574219 0-13.601563-6.144531-13.601563-13.597656 0-7.511718 6.089844-13.601562 13.601563-13.601562h46.253906c7.445313 0 13.601563-6.046875 13.601563-13.601563 0-7.511719-6.089844-13.601562-13.597657-13.601562zm0 0" fill="#c3e9fc"/></svg>